<svg width="900" height="380" viewBox="0 0 900 380" xmlns="http://www.w3.org/2000/svg">
  <defs>
    <linearGradient id="dashBg" x1="0%" y1="0%" x2="0%" y2="100%">
      <stop offset="0%" style="stop-color:#05050f"/>
      <stop offset="100%" style="stop-color:#0a0a1e"/>
    </linearGradient>
    <linearGradient id="cardGrad1" x1="0%" y1="0%" x2="100%" y2="100%">
      <stop offset="0%" style="stop-color:#0f1729"/>
      <stop offset="100%" style="stop-color:#0a0f20"/>
    </linearGradient>
    <linearGradient id="cardGrad2" x1="0%" y1="0%" x2="100%" y2="100%">
      <stop offset="0%" style="stop-color:#13062a"/>
      <stop offset="100%" style="stop-color:#0e0420"/>
    </linearGradient>
    <filter id="cardShadow">
      <feDropShadow dx="0" dy="4" stdDeviation="8" flood-color="#7b2ff7" flood-opacity="0.15"/>
    </filter>
    <filter id="metricGlow">
      <feGaussianBlur stdDeviation="4" result="blur"/>
      <feMerge><feMergeNode in="blur"/><feMergeNode in="SourceGraphic"/></feMerge>
    </filter>
  </defs>

  <!-- Background -->
  <rect width="900" height="380" fill="url(#dashBg)"/>

  <!-- Title -->
  <text x="450" y="36" text-anchor="middle" font-family="Arial, sans-serif" font-size="16" font-weight="700" fill="#ffffff" letter-spacing="4">AI DASHBOARD</text>
  <rect x="380" y="44" width="140" height="1" fill="#a855f7" opacity="0.6"/>

  <!-- Row 1 cards (top) -->

  <!-- Card 1: Status -->
  <rect x="24" y="62" width="194" height="120" rx="12" fill="url(#cardGrad1)" filter="url(#cardShadow)"/>
  <rect x="24" y="62" width="194" height="120" rx="12" fill="none" stroke="#00d4ff" stroke-width="1" opacity="0.2"/>
  <rect x="24" y="62" width="194" height="2" rx="1" fill="#00d4ff" opacity="0.6"/>
  <text x="40" y="90" font-family="Arial, sans-serif" font-size="10" fill="#64748b" letter-spacing="2">STATUS</text>
  <circle cx="170" cy="85" r="5" fill="#4ade80">
    <animate attributeName="opacity" values="1;0.3;1" dur="1.5s" repeatCount="indefinite"/>
  </circle>
  <text x="40" y="122" font-family="Arial, sans-serif" font-size="26" font-weight="900" fill="#00d4ff" filter="url(#metricGlow)">ONLINE</text>
  <text x="40" y="148" font-family="Arial, sans-serif" font-size="11" fill="#4ade80">● Building · Growing</text>
  <text x="40" y="166" font-family="Arial, sans-serif" font-size="10" fill="#334155">System · Active 24/7</text>

  <!-- Card 2: Learning -->
  <rect x="230" y="62" width="194" height="120" rx="12" fill="url(#cardGrad2)" filter="url(#cardShadow)"/>
  <rect x="230" y="62" width="194" height="120" rx="12" fill="none" stroke="#a855f7" stroke-width="1" opacity="0.2"/>
  <rect x="230" y="62" width="194" height="2" rx="1" fill="#a855f7" opacity="0.6"/>
  <text x="246" y="90" font-family="Arial, sans-serif" font-size="10" fill="#64748b" letter-spacing="2">LEARNING STREAK</text>
  <text x="246" y="132" font-family="Arial, sans-serif" font-size="36" font-weight="900" fill="#a855f7" filter="url(#metricGlow)">∞</text>
  <text x="290" y="132" font-family="Arial, sans-serif" font-size="14" fill="#7c3aed" opacity="0.7">days</text>
  <text x="246" y="155" font-family="Arial, sans-serif" font-size="11" fill="#a855f7">Never Stops</text>
  <text x="246" y="170" font-family="Arial, sans-serif" font-size="10" fill="#334155">Consistent learner</text>

  <!-- Card 3: Focus -->
  <rect x="436" y="62" width="194" height="120" rx="12" fill="url(#cardGrad1)" filter="url(#cardShadow)"/>
  <rect x="436" y="62" width="194" height="120" rx="12" fill="none" stroke="#7b2ff7" stroke-width="1" opacity="0.2"/>
  <rect x="436" y="62" width="194" height="2" rx="1" fill="#7b2ff7" opacity="0.6"/>
  <text x="452" y="90" font-family="Arial, sans-serif" font-size="10" fill="#64748b" letter-spacing="2">CURRENT FOCUS</text>
  <text x="452" y="125" font-family="Arial, sans-serif" font-size="20" font-weight="900" fill="#7b2ff7">Machine</text>
  <text x="452" y="147" font-family="Arial, sans-serif" font-size="20" font-weight="900" fill="#00d4ff">Learning</text>
  <text x="452" y="170" font-family="Arial, sans-serif" font-size="10" fill="#334155">Deep dive in progress</text>

  <!-- Card 4: Mode -->
  <rect x="642" y="62" width="234" height="120" rx="12" fill="url(#cardGrad2)" filter="url(#cardShadow)"/>
  <rect x="642" y="62" width="234" height="120" rx="12" fill="none" stroke="#f59e0b" stroke-width="1" opacity="0.2"/>
  <rect x="642" y="62" width="234" height="2" rx="1" fill="#f59e0b" opacity="0.6"/>
  <text x="658" y="90" font-family="Arial, sans-serif" font-size="10" fill="#64748b" letter-spacing="2">BUILDER MODE</text>
  <text x="658" y="126" font-family="Arial, sans-serif" font-size="22" font-weight="900" fill="#f59e0b">⚡ ACTIVE</text>
  <text x="658" y="150" font-family="Arial, sans-serif" font-size="11" fill="#f59e0b" opacity="0.8">AI · Full Stack · Open Source</text>
  <text x="658" y="170" font-family="Arial, sans-serif" font-size="10" fill="#334155">Shipping code daily</text>

  <!-- Row 2 cards (bottom) -->

  <!-- Card 5: Skills -->
  <rect x="24" y="202" width="280" height="150" rx="12" fill="url(#cardGrad1)" filter="url(#cardShadow)"/>
  <rect x="24" y="202" width="280" height="150" rx="12" fill="none" stroke="#00d4ff" stroke-width="1" opacity="0.15"/>
  <rect x="24" y="202" width="280" height="2" rx="1" fill="#00d4ff" opacity="0.5"/>
  <text x="40" y="228" font-family="Arial, sans-serif" font-size="10" fill="#64748b" letter-spacing="2">TOP SKILLS</text>
  <text x="40" y="258" font-family="Arial, sans-serif" font-size="12" fill="#00d4ff">Python</text>
  <rect x="110" y="246" width="170" height="6" rx="3" fill="#ffffff08"/>
  <rect x="110" y="246" width="150" height="6" rx="3" fill="#00d4ff" opacity="0.7"/>
  <text x="40" y="280" font-family="Arial, sans-serif" font-size="12" fill="#a855f7">JavaScript</text>
  <rect x="110" y="268" width="170" height="6" rx="3" fill="#ffffff08"/>
  <rect x="110" y="268" width="120" height="6" rx="3" fill="#a855f7" opacity="0.7"/>
  <text x="40" y="302" font-family="Arial, sans-serif" font-size="12" fill="#7b2ff7">FastAPI</text>
  <rect x="110" y="290" width="170" height="6" rx="3" fill="#ffffff08"/>
  <rect x="110" y="290" width="130" height="6" rx="3" fill="#7b2ff7" opacity="0.7"/>
  <text x="40" y="324" font-family="Arial, sans-serif" font-size="12" fill="#f59e0b">React</text>
  <rect x="110" y="312" width="170" height="6" rx="3" fill="#ffffff08"/>
  <rect x="110" y="312" width="115" height="6" rx="3" fill="#f59e0b" opacity="0.7"/>
  <text x="40" y="340" font-family="Arial, sans-serif" font-size="12" fill="#4ade80">ML/AI</text>
  <rect x="110" y="328" width="170" height="6" rx="3" fill="#ffffff08"/>
  <rect x="110" y="328" width="100" height="6" rx="3" fill="#4ade80" opacity="0.7"/>

  <!-- Card 6: Activity -->
  <rect x="316" y="202" width="258" height="150" rx="12" fill="url(#cardGrad2)" filter="url(#cardShadow)"/>
  <rect x="316" y="202" width="258" height="150" rx="12" fill="none" stroke="#a855f7" stroke-width="1" opacity="0.15"/>
  <rect x="316" y="202" width="258" height="2" rx="1" fill="#a855f7" opacity="0.5"/>
  <text x="332" y="228" font-family="Arial, sans-serif" font-size="10" fill="#64748b" letter-spacing="2">ACTIVITY MATRIX</text>
  <!-- Mini contribution graph simulation -->
  <g opacity="0.8">
    <!-- Row 1 -->
    <rect x="332" y="240" width="10" height="10" rx="2" fill="#1e293b"/>
    <rect x="346" y="240" width="10" height="10" rx="2" fill="#4ade8040"/>
    <rect x="360" y="240" width="10" height="10" rx="2" fill="#a855f770"/>
    <rect x="374" y="240" width="10" height="10" rx="2" fill="#00d4ff50"/>
    <rect x="388" y="240" width="10" height="10" rx="2" fill="#7b2ff760"/>
    <rect x="402" y="240" width="10" height="10" rx="2" fill="#a855f780"/>
    <rect x="416" y="240" width="10" height="10" rx="2" fill="#00d4ff60"/>
    <rect x="430" y="240" width="10" height="10" rx="2" fill="#4ade8050"/>
    <rect x="444" y="240" width="10" height="10" rx="2" fill="#1e293b"/>
    <rect x="458" y="240" width="10" height="10" rx="2" fill="#a855f780"/>
    <rect x="472" y="240" width="10" height="10" rx="2" fill="#00d4ff70"/>
    <rect x="486" y="240" width="10" height="10" rx="2" fill="#7b2ff750"/>
    <rect x="500" y="240" width="10" height="10" rx="2" fill="#a855f760"/>
    <rect x="514" y="240" width="10" height="10" rx="2" fill="#4ade8060"/>
    <rect x="528" y="240" width="10" height="10" rx="2" fill="#00d4ff50"/>
    <rect x="542" y="240" width="10" height="10" rx="2" fill="#1e293b"/>
    <!-- Row 2 -->
    <rect x="332" y="254" width="10" height="10" rx="2" fill="#a855f760"/>
    <rect x="346" y="254" width="10" height="10" rx="2" fill="#1e293b"/>
    <rect x="360" y="254" width="10" height="10" rx="2" fill="#00d4ff70"/>
    <rect x="374" y="254" width="10" height="10" rx="2" fill="#a855f780"/>
    <rect x="388" y="254" width="10" height="10" rx="2" fill="#4ade8060"/>
    <rect x="402" y="254" width="10" height="10" rx="2" fill="#1e293b"/>
    <rect x="416" y="254" width="10" height="10" rx="2" fill="#7b2ff780"/>
    <rect x="430" y="254" width="10" height="10" rx="2" fill="#00d4ff50"/>
    <rect x="444" y="254" width="10" height="10" rx="2" fill="#a855f770"/>
    <rect x="458" y="254" width="10" height="10" rx="2" fill="#1e293b"/>
    <rect x="472" y="254" width="10" height="10" rx="2" fill="#4ade8050"/>
    <rect x="486" y="254" width="10" height="10" rx="2" fill="#7b2ff760"/>
    <rect x="500" y="254" width="10" height="10" rx="2" fill="#00d4ff60"/>
    <rect x="514" y="254" width="10" height="10" rx="2" fill="#a855f750"/>
    <rect x="528" y="254" width="10" height="10" rx="2" fill="#4ade8070"/>
    <rect x="542" y="254" width="10" height="10" rx="2" fill="#1e293b"/>
    <!-- Row 3 -->
    <rect x="332" y="268" width="10" height="10" rx="2" fill="#1e293b"/>
    <rect x="346" y="268" width="10" height="10" rx="2" fill="#7b2ff770"/>
    <rect x="360" y="268" width="10" height="10" rx="2" fill="#a855f780"/>
    <rect x="374" y="268" width="10" height="10" rx="2" fill="#00d4ff60"/>
    <rect x="388" y="268" width="10" height="10" rx="2" fill="#1e293b"/>
    <rect x="402" y="268" width="10" height="10" rx="2" fill="#4ade8080"/>
    <rect x="416" y="268" width="10" height="10" rx="2" fill="#a855f760"/>
    <rect x="430" y="268" width="10" height="10" rx="2" fill="#1e293b"/>
    <rect x="444" y="268" width="10" height="10" rx="2" fill="#00d4ff70"/>
    <rect x="458" y="268" width="10" height="10" rx="2" fill="#7b2ff780"/>
    <rect x="472" y="268" width="10" height="10" rx="2" fill="#a855f760"/>
    <rect x="486" y="268" width="10" height="10" rx="2" fill="#1e293b"/>
    <rect x="500" y="268" width="10" height="10" rx="2" fill="#4ade8060"/>
    <rect x="514" y="268" width="10" height="10" rx="2" fill="#00d4ff50"/>
    <rect x="528" y="268" width="10" height="10" rx="2" fill="#7b2ff750"/>
    <rect x="542" y="268" width="10" height="10" rx="2" fill="#a855f770"/>
    <!-- Row 4 -->
    <rect x="332" y="282" width="10" height="10" rx="2" fill="#4ade8060"/>
    <rect x="346" y="282" width="10" height="10" rx="2" fill="#a855f780"/>
    <rect x="360" y="282" width="10" height="10" rx="2" fill="#1e293b"/>
    <rect x="374" y="282" width="10" height="10" rx="2" fill="#7b2ff770"/>
    <rect x="388" y="282" width="10" height="10" rx="2" fill="#00d4ff60"/>
    <rect x="402" y="282" width="10" height="10" rx="2" fill="#a855f780"/>
    <rect x="416" y="282" width="10" height="10" rx="2" fill="#4ade8050"/>
    <rect x="430" y="282" width="10" height="10" rx="2" fill="#7b2ff760"/>
    <rect x="444" y="282" width="10" height="10" rx="2" fill="#1e293b"/>
    <rect x="458" y="282" width="10" height="10" rx="2" fill="#00d4ff80"/>
    <rect x="472" y="282" width="10" height="10" rx="2" fill="#a855f770"/>
    <rect x="486" y="282" width="10" height="10" rx="2" fill="#7b2ff760"/>
    <rect x="500" y="282" width="10" height="10" rx="2" fill="#1e293b"/>
    <rect x="514" y="282" width="10" height="10" rx="2" fill="#4ade8060"/>
    <rect x="528" y="282" width="10" height="10" rx="2" fill="#00d4ff50"/>
    <rect x="542" y="282" width="10" height="10" rx="2" fill="#a855f770"/>
  </g>
  <text x="332" y="322" font-family="Arial, sans-serif" font-size="10" fill="#4ade80">● Building consistently</text>
  <text x="332" y="340" font-family="Arial, sans-serif" font-size="10" fill="#334155">Daily commits · Open Source</text>

  <!-- Card 7: Mission -->
  <rect x="586" y="202" width="290" height="150" rx="12" fill="url(#cardGrad1)" filter="url(#cardShadow)"/>
  <rect x="586" y="202" width="290" height="150" rx="12" fill="none" stroke="#7b2ff7" stroke-width="1" opacity="0.15"/>
  <rect x="586" y="202" width="290" height="2" rx="1" fill="#7b2ff7" opacity="0.5"/>
  <text x="602" y="228" font-family="Arial, sans-serif" font-size="10" fill="#64748b" letter-spacing="2">MISSION CONTROL</text>
  <text x="602" y="258" font-family="'Courier New', monospace" font-size="11" fill="#00d4ff">→ Build intelligent products</text>
  <text x="602" y="276" font-family="'Courier New', monospace" font-size="11" fill="#a855f7">→ Master Machine Learning</text>
  <text x="602" y="294" font-family="'Courier New', monospace" font-size="11" fill="#7b2ff7">→ Ship open source tools</text>
  <text x="602" y="312" font-family="'Courier New', monospace" font-size="11" fill="#f59e0b">→ Solve real problems</text>
  <text x="602" y="330" font-family="'Courier New', monospace" font-size="11" fill="#4ade80">→ Never stop learning</text>
  <text x="602" y="346" font-family="'Courier New', monospace" font-size="10" fill="#334155">// Executing mission...</text>
</svg>
